<svg width="404" height="136" viewBox="0 0 404 136" fill="none" xmlns="http://www.w3.org/2000/svg">
<path d="M202 14.0078L213.912 0.0078125H374C390.569 0.0078125 404 13.4392 404 30.0078V93.0078C404 109.576 390.569 123.008 374 123.008H213.061L202 136.008L190.939 123.008H30C13.4314 123.008 0 109.576 0 93.0078V30.0078C0 13.4392 13.4314 0.0078125 30 0.0078125H190.088L202 14.0078Z" fill="url(#paint0_linear_2399_347)"/>
<path d="M43.032 29.3299V37.8979C43.032 40.4739 42.724 41.8739 42.36 42.7979C41.772 44.1979 40.764 45.4019 39.392 45.3179V52.2059H42.08V48.0059H54.12V52.2059H56.808V45.3179H54.68V29.3299H43.032ZM45.888 32.0179H51.824V45.3179H43.788C44.32 44.7859 44.824 44.1419 45.244 43.1059C45.58 42.2099 45.888 40.7819 45.888 37.8979V32.0179ZM64.6309 35.9099C61.0749 35.9099 58.3309 38.4859 58.3309 42.1259C58.3309 45.7379 61.0749 48.3699 64.6309 48.3699C68.1869 48.3699 70.9309 45.7379 70.9309 42.1259C70.9309 38.4859 68.1869 35.9099 64.6309 35.9099ZM64.6309 45.9059C62.4749 45.9059 61.1309 44.4219 61.1309 42.1539C61.1309 39.4659 62.9229 38.3739 64.6309 38.3739C66.3389 38.3739 68.1309 39.4659 68.1309 42.1539C68.1309 44.4219 66.7869 45.9059 64.6309 45.9059ZM76.5386 46.6339C77.7706 48.1739 79.4226 48.3699 80.0666 48.3699C82.8666 48.3699 85.7786 45.9899 85.7786 42.0419C85.7786 38.3179 83.1466 35.9099 80.0386 35.9099C78.8346 35.9099 77.5466 36.3019 76.5386 37.5059V36.2179H73.7946V54.4179H76.5386V46.6339ZM79.7026 38.3739C81.6906 38.3739 82.9786 40.0539 82.9786 42.1539C82.9786 44.1979 81.6906 45.9059 79.7026 45.9059C77.9946 45.9059 76.3706 44.6459 76.3706 42.1819C76.3706 39.6059 77.9946 38.3739 79.7026 38.3739ZM94.3263 35.9099C90.7703 35.9099 88.0263 38.4859 88.0263 42.1259C88.0263 45.7379 90.7703 48.3699 94.3263 48.3699C97.8823 48.3699 100.626 45.7379 100.626 42.1259C100.626 38.4859 97.8823 35.9099 94.3263 35.9099ZM94.3263 45.9059C92.1703 45.9059 90.8263 44.4219 90.8263 42.1539C90.8263 39.4659 92.6183 38.3739 94.3263 38.3739C96.0343 38.3739 97.8263 39.4659 97.8263 42.1539C97.8263 44.4219 96.4823 45.9059 94.3263 45.9059ZM109.118 36.2179V40.5859L105.562 36.2179H102.258L106.822 41.5939L101.81 48.0059H105.226L108.782 43.2739L109.118 43.6659V48.0059H111.862V43.6659L112.198 43.2739L115.754 48.0059H119.17L114.158 41.5939L118.722 36.2179H115.418L111.862 40.5859V36.2179H109.118ZM120.963 36.2179V48.9019L129.027 41.1459V48.0059H131.771V35.1539L123.707 42.9099V36.2179H120.963ZM133.892 48.0059H136.692L137.868 42.0979L141.62 48.9019L145.372 42.0979L146.548 48.0059H149.348L146.492 35.1539L141.62 44.1419L136.748 35.1539L133.892 48.0059ZM167.141 36.7499C165.881 36.0499 164.817 35.9099 163.921 35.9099C161.569 35.9099 160.113 36.7219 159.189 37.6459C158.321 38.5139 157.397 39.9699 157.397 42.2099C157.397 44.3659 158.209 45.7659 159.077 46.6339C160.197 47.8379 161.569 48.3699 163.557 48.3699C165.377 48.3699 166.469 47.8659 167.141 47.4459V44.3939C166.161 45.4859 164.873 45.9059 163.753 45.9059C162.745 45.9059 161.905 45.5419 161.261 44.9539C160.729 44.4219 160.197 43.4979 160.197 42.1259C160.197 40.8099 160.673 39.9419 161.205 39.4099C161.737 38.8779 162.493 38.3739 163.809 38.3739C164.677 38.3739 165.881 38.5979 167.141 39.8299V36.7499ZM169.771 36.2179V48.0059H175.287C175.791 48.0059 177.051 47.9499 178.003 47.2219C178.591 46.7739 179.291 45.9619 179.291 44.5339C179.291 43.4419 178.899 42.7419 178.367 42.2659C177.891 41.8459 177.359 41.5939 176.771 41.4819C177.751 41.0059 178.171 40.1659 178.171 39.1859C178.171 37.9539 177.499 37.2539 177.079 36.9179C176.183 36.2459 175.091 36.2179 174.391 36.2179H169.771ZM172.515 40.8099V38.4579H173.859C174.279 38.4579 174.699 38.4299 175.063 38.6819C175.371 38.9059 175.539 39.2139 175.539 39.6059C175.539 39.9139 175.455 40.2499 175.007 40.5579C174.923 40.6419 174.559 40.8099 173.915 40.8099H172.515ZM172.515 45.7659V43.0499H174.643C175.063 43.0499 175.595 43.0499 176.015 43.3579C176.323 43.5539 176.547 43.8619 176.547 44.3939C176.547 44.9259 176.239 45.2339 175.987 45.4299C175.567 45.7379 175.007 45.7659 174.559 45.7659H172.515ZM187.842 35.9099C184.286 35.9099 181.542 38.4859 181.542 42.1259C181.542 45.7379 184.286 48.3699 187.842 48.3699C191.398 48.3699 194.142 45.7379 194.142 42.1259C194.142 38.4859 191.398 35.9099 187.842 35.9099ZM187.842 45.9059C185.686 45.9059 184.342 44.4219 184.342 42.1539C184.342 39.4659 186.134 38.3739 187.842 38.3739C189.55 38.3739 191.342 39.4659 191.342 42.1539C191.342 44.4219 189.998 45.9059 187.842 45.9059ZM205.266 44.0299C205.014 44.4779 204.65 44.9539 204.174 45.3179C203.642 45.7099 203.026 45.9059 202.298 45.9059C201.626 45.9059 200.842 45.7939 200.198 45.1499C199.61 44.5619 199.274 43.6379 199.19 42.7699H207.646V42.4339C207.646 41.2299 207.506 39.0459 205.994 37.4499C205.294 36.6939 204.118 35.9099 202.214 35.9099C200.534 35.9099 199.246 36.5259 198.266 37.5059C197.034 38.7659 196.39 40.5299 196.39 42.3499C196.39 44.1419 197.006 45.7379 198.126 46.8579C199.246 47.9779 200.534 48.3699 202.102 48.3699C203.362 48.3699 204.594 48.1179 205.574 47.4739C206.33 46.9979 207.03 46.2139 207.562 45.3179L205.266 44.0299ZM199.386 40.5299C199.526 39.8859 199.806 39.3819 200.226 39.0179C200.59 38.6539 201.178 38.2619 202.158 38.2619C203.054 38.2619 203.642 38.5979 204.006 38.9339C204.454 39.3539 204.734 39.8859 204.846 40.5299H199.386ZM210.513 36.2179V48.9019L218.577 41.1459V48.0059H221.321V35.1539L213.257 42.9099V36.2179H210.513ZM211.409 31.1219C212.081 33.4459 214.321 34.4259 215.945 34.4259C217.569 34.4259 219.809 33.4459 220.481 31.1219L218.241 30.4779C217.877 31.6819 217.093 32.2979 215.945 32.2979C215.301 32.2979 214.097 32.1299 213.649 30.4779L211.409 31.1219ZM43.48 88.6339C44.712 90.1739 46.364 90.3699 47.008 90.3699C49.808 90.3699 52.72 87.9899 52.72 84.0419C52.72 80.3179 50.088 77.9099 46.98 77.9099C45.776 77.9099 44.488 78.3019 43.48 79.5059V78.2179H40.736V96.4179H43.48V88.6339ZM46.644 80.3739C48.632 80.3739 49.92 82.0539 49.92 84.1539C49.92 86.1979 48.632 87.9059 46.644 87.9059C44.936 87.9059 43.312 86.6459 43.312 84.1819C43.312 81.6059 44.936 80.3739 46.644 80.3739ZM63.8437 86.0299C63.5917 86.4779 63.2277 86.9539 62.7517 87.3179C62.2197 87.7099 61.6037 87.9059 60.8757 87.9059C60.2037 87.9059 59.4197 87.7939 58.7757 87.1499C58.1877 86.5619 57.8517 85.6379 57.7677 84.7699H66.2237V84.4339C66.2237 83.2299 66.0837 81.0459 64.5717 79.4499C63.8717 78.6939 62.6957 77.9099 60.7917 77.9099C59.1117 77.9099 57.8237 78.5259 56.8437 79.5059C55.6117 80.7659 54.9677 82.5299 54.9677 84.3499C54.9677 86.1419 55.5837 87.7379 56.7037 88.8579C57.8237 89.9779 59.1117 90.3699 60.6797 90.3699C61.9397 90.3699 63.1717 90.1179 64.1517 89.4739C64.9077 88.9979 65.6077 88.2139 66.1397 87.3179L63.8437 86.0299ZM57.9637 82.5299C58.1037 81.8859 58.3837 81.3819 58.8037 81.0179C59.1677 80.6539 59.7557 80.2619 60.7357 80.2619C61.6317 80.2619 62.2197 80.5979 62.5837 80.9339C63.0317 81.3539 63.3117 81.8859 63.4237 82.5299H57.9637ZM69.0915 78.2179V90.0059H71.8355V80.7379H76.5955V90.0059H79.3395V78.2179H69.0915ZM81.95 96.4179H85.03L94.41 78.2179H91.33L87.914 85.1059L84.554 78.2179H81.25L86.29 88.1579L81.95 96.4179ZM104.993 80.7379V78.2179H95.3607V80.7379H98.8047V90.0059H101.549V80.7379H104.993ZM115.286 79.5899C114.138 78.1619 112.654 77.9099 111.786 77.9099C108.678 77.9099 106.046 80.2899 106.046 84.0979C106.046 87.3459 108.09 90.3699 111.758 90.3699C112.57 90.3699 114.11 90.1739 115.286 88.7739V90.0059H118.03V78.2179H115.286V79.5899ZM112.122 80.3739C113.83 80.3739 115.454 81.6059 115.454 84.1819C115.454 86.6459 113.83 87.9059 112.122 87.9059C110.134 87.9059 108.846 86.1979 108.846 84.1539C108.846 82.0539 110.134 80.3739 112.122 80.3739ZM121.509 90.0059H131.085V93.3659H133.605V87.4859H131.645V78.2179H128.901V87.4859H124.253V78.2179H121.509V90.0059ZM135.564 78.2179V90.9019L143.628 83.1459V90.0059H146.372V77.1539L138.308 84.9099V78.2179H135.564ZM158.098 86.0299C157.846 86.4779 157.482 86.9539 157.006 87.3179C156.474 87.7099 155.858 87.9059 155.13 87.9059C154.458 87.9059 153.674 87.7939 153.03 87.1499C152.442 86.5619 152.106 85.6379 152.022 84.7699H160.478V84.4339C160.478 83.2299 160.338 81.0459 158.826 79.4499C158.126 78.6939 156.95 77.9099 155.046 77.9099C153.366 77.9099 152.078 78.5259 151.098 79.5059C149.866 80.7659 149.222 82.5299 149.222 84.3499C149.222 86.1419 149.838 87.7379 150.958 88.8579C152.078 89.9779 153.366 90.3699 154.934 90.3699C156.194 90.3699 157.426 90.1179 158.406 89.4739C159.162 88.9979 159.862 88.2139 160.394 87.3179L158.098 86.0299ZM152.218 82.5299C152.358 81.8859 152.638 81.3819 153.058 81.0179C153.422 80.6539 154.01 80.2619 154.99 80.2619C155.886 80.2619 156.474 80.5979 156.838 80.9339C157.286 81.3539 157.566 81.8859 157.678 82.5299H152.218ZM163.345 78.2179V90.9019L171.409 83.1459V90.0059H174.153V77.1539L166.089 84.9099V78.2179H163.345ZM164.241 73.1219C164.913 75.4459 167.153 76.4259 168.777 76.4259C170.401 76.4259 172.641 75.4459 173.313 73.1219L171.073 72.4779C170.709 73.6819 169.925 74.2979 168.777 74.2979C168.133 74.2979 166.929 74.1299 166.481 72.4779L164.241 73.1219Z" fill="white"/>
<path d="M294.52 36.7278L265.4 77.1878H289.34V86.0078H294.52V77.1878H300.26V72.4278H294.52V36.7278ZM274.57 72.4278L289.34 51.7778V72.4278H274.57ZM308.265 83.2078C308.265 85.0978 309.875 86.7078 311.765 86.7078C313.655 86.7078 315.265 85.0978 315.265 83.2078C315.265 81.3178 313.655 79.7078 311.765 79.7078C309.875 79.7078 308.265 81.3178 308.265 83.2078ZM346.803 61.7178C350.513 59.5478 352.473 55.9078 352.473 51.4978C352.473 44.8478 347.993 38.5478 339.593 38.5478C331.193 38.5478 326.713 44.8478 326.713 51.4978C326.713 55.9078 328.673 59.5478 332.383 61.7178C327.623 63.8878 325.313 68.0878 325.313 73.1278C325.313 80.4078 330.003 86.8478 339.593 86.8478C349.043 86.8478 353.873 80.4078 353.873 73.1278C353.873 68.0878 351.563 63.8878 346.803 61.7178ZM339.593 59.6178C335.043 59.6178 331.613 56.2578 331.613 51.5678C331.613 46.4578 335.323 43.3078 339.593 43.3078C343.863 43.3078 347.573 46.4578 347.573 51.5678C347.573 56.2578 344.143 59.6178 339.593 59.6178ZM339.593 82.0878C334.203 82.0878 330.493 78.3078 330.493 72.9878C330.493 67.7378 334.273 64.0978 339.593 64.0978C344.913 64.0978 348.693 67.7378 348.693 72.9878C348.693 78.3078 344.983 82.0878 339.593 82.0878Z" fill="white"/>
<defs>
<linearGradient id="paint0_linear_2399_347" x1="0" y1="68.0078" x2="404" y2="68.0078" gradientUnits="userSpaceOnUse">
<stop stop-color="#FDC4A6"/>
<stop offset="1" stop-color="#A9796B"/>
</linearGradient>
</defs>
</svg>
