<svg width="982" height="753" viewBox="0 0 982 753" fill="none" xmlns="http://www.w3.org/2000/svg">
<path d="M92.2 209.001H114.4V180.801H119.8C194.2 180.801 211.6 135.201 211.6 102.801C211.6 70.4015 194.2 24.8015 119.8 24.8015H114.4V0.801463H92.2V24.8015H86.8C12.4 24.8015 -5 70.4015 -5 102.801C-5 135.201 12.4 180.801 86.8 180.801H92.2V209.001ZM92.2 159.801H86.2C31.6 159.801 17.8 128.301 17.8 102.801C17.8 77.3015 31.6 45.8015 86.2 45.8015H92.2V159.801ZM114.4 45.8015H120.4C175 45.8015 188.8 77.3015 188.8 102.801C188.8 128.301 175 159.801 120.4 159.801H114.4V45.8015ZM345.78 212.601C403.68 212.601 449.88 168.501 449.88 109.101C449.88 49.4015 403.38 5.60145 345.78 5.60145C288.18 5.60145 241.68 49.4015 241.68 109.101C241.68 168.501 287.88 212.601 345.78 212.601ZM345.78 26.6015C390.48 26.6015 427.08 63.2015 427.08 109.101C427.08 155.001 390.48 191.601 345.78 191.601C300.78 191.601 264.48 155.001 264.48 109.101C264.48 63.2015 300.78 26.6015 345.78 26.6015ZM577.916 29.9015V8.90145H458.516V29.9015H507.116V209.001H529.316V29.9015H577.916ZM690.604 212.601C748.504 212.601 794.704 168.501 794.704 109.101C794.704 49.4015 748.204 5.60145 690.604 5.60145C633.004 5.60145 586.504 49.4015 586.504 109.101C586.504 168.501 632.704 212.601 690.604 212.601ZM690.604 26.6015C735.304 26.6015 771.904 63.2015 771.904 109.101C771.904 155.001 735.304 191.601 690.604 191.601C645.604 191.601 609.304 155.001 609.304 109.101C609.304 63.2015 645.604 26.6015 690.604 26.6015ZM5.8 278.901V479.001H55.6C69.4 479.001 88 478.401 103.6 465.801C114.4 457.401 124 441.801 124 422.601C124 403.101 113.5 379.401 85.9 372.201C103.3 360.201 105.7 342.801 105.7 332.901C105.7 308.601 94 296.301 87.7 291.501C73.6 279.801 52.6 278.901 41.8 278.901H5.8ZM28 299.901H45.4C51.7 299.901 84.1 300.501 84.1 333.501C84.1 364.401 56.5 366.801 44.8 366.801H28V299.901ZM28 386.601H50.8C66.1 386.601 77.5 388.701 84.7 392.601C92.8 397.101 101.8 406.101 101.8 422.001C101.8 434.001 96.7 443.901 88.6 449.601C79 457.101 66.4 458.001 53.5 458.001H28V386.601ZM304.082 479.001H326.282V270.501L187.082 432.201V278.901H164.882V488.001L304.082 326.301V479.001ZM395.27 278.901V378.501C395.27 406.101 391.97 421.101 388.07 431.001C381.77 446.001 370.97 458.901 356.27 458.001V521.001H377.27V479.001H518.87V521.001H539.87V458.001H517.07V278.901H395.27ZM417.47 299.901H494.87V458.001H394.97C401.87 451.101 406.67 443.901 410.27 434.301C415.07 421.401 417.47 406.101 417.47 378.501V299.901ZM673.565 278.901H569.765V479.001H673.565V458.001H591.965V380.301H671.165V359.301H591.965V299.901H673.565V278.901ZM807.791 482.601C865.691 482.601 911.891 438.501 911.891 379.101C911.891 319.401 865.391 275.601 807.791 275.601C750.191 275.601 703.691 319.401 703.691 379.101C703.691 438.501 749.891 482.601 807.791 482.601ZM807.791 296.601C852.491 296.601 889.091 333.201 889.091 379.101C889.091 425.001 852.491 461.601 807.791 461.601C762.791 461.601 726.491 425.001 726.491 379.101C726.491 333.201 762.791 296.601 807.791 296.601ZM99.1 752.601C157 752.601 203.2 708.501 203.2 649.101C203.2 589.401 156.7 545.601 99.1 545.601C41.5 545.601 -5 589.401 -5 649.101C-5 708.501 41.2 752.601 99.1 752.601ZM99.1 566.601C143.8 566.601 180.4 603.201 180.4 649.101C180.4 695.001 143.8 731.601 99.1 731.601C54.1 731.601 17.8 695.001 17.8 649.101C17.8 603.201 54.1 566.601 99.1 566.601ZM331.237 569.901V548.901H211.837V569.901H260.437V749.001H282.637V569.901H331.237ZM464.371 749.001H486.571V548.901H464.371V642.201C454.771 643.101 441.271 644.301 424.171 644.301C408.571 644.301 396.571 643.701 389.371 638.001C377.371 629.301 377.371 612.801 377.371 605.001V548.901H355.171V608.001C355.171 621.201 356.671 641.601 373.471 654.501C383.071 662.001 397.771 665.301 422.971 665.301C433.471 665.301 452.371 664.101 464.371 663.201V749.001ZM641.924 548.901H538.124V749.001H641.924V728.001H560.324V650.301H639.524V629.301H560.324V569.901H641.924V548.901ZM790.026 569.901V548.901H670.626V569.901H719.226V749.001H741.426V569.901H790.026ZM819.96 749.001H873.36C912.66 749.001 938.16 726.801 938.16 688.401C938.16 637.101 893.76 632.001 869.16 632.001H842.16V548.901H819.96V749.001ZM842.16 653.001H865.56C877.86 653.001 889.86 653.001 899.16 658.101C912.66 665.301 915.36 678.801 915.36 688.401C915.36 702.801 910.56 711.801 904.86 716.901C893.76 728.001 876.96 728.001 867.96 728.001H842.16V653.001ZM959.16 548.901V749.001H981.36V548.901H959.16Z" fill="#2F4F3E"/>
</svg>
